/* XPM */
static char *_ab7d2c6af7c45209f35bb21cccb774e2N1CuvNRrl6PydCz[] = {
/* columns rows colors chars-per-pixel */
"16 16 2 1 ",
"  c None",
". c #8DA5F3",
/* pixels */
"                ",
"      ....      ",
"    ........    ",
"   ....  ....   ",
"  ...      ...  ",
"  ..       ...  ",
" ...  .  ...... ",
" ...       .... ",
" ....       ... ",
" ......  .  ... ",
"  ...       ..  ",
"  ...      ...  ",
"   ....  ....   ",
"    ........    ",
"      ....      ",
"                "
};
