/* XPM */
static char *_aa1a9b60fbc4e1188c950cf53b168e8XTwdWIk463gHSQRH[] = {
/* columns rows colors chars-per-pixel */
"16 16 2 1 ",
"  c None",
". c #8DA5F3",
/* pixels */
"       ..       ",
"     ....       ",
"   ......       ",
" ........       ",
" ........       ",
"   ......       ",
"     ....       ",
"       ..       ",
"                ",
"       ..       ",
"       ..       ",
"      ....      ",
"      ....      ",
"    ..    ..    ",
"   ..........   ",
"    ........    "
};
