/* XPM */
static char *cf42d9510f95450fa88437c775b1adfdbjD4zFVBEeL5OPxr[] = {
/* columns rows colors chars-per-pixel */
"16 16 2 1 ",
"  c None",
". c #8DA5F3",
/* pixels */
"  ............  ",
" .............. ",
" ...        ... ",
" ..    .  .. .. ",
" ..   .  ... .. ",
" ..  .  .... .. ",
" .. .  ....  .. ",
" ..   ....   .. ",
" ..  ....  . .. ",
" .. ....  .. .. ",
" .. ...  ... .. ",
" .. ..  ...  .. ",
" ..    ...   .. ",
" ...        ... ",
" .............. ",
"  ............  "
};
