/* XPM */
static char *ee800374f26648c3c986bd18f13be70aYS9DzKOKORkqsUOd[] = {
/* columns rows colors chars-per-pixel */
"16 16 2 1 ",
"  c None",
". c #8DA5F3",
/* pixels */
"    ........    ",
"  ............  ",
" .............. ",
"......    ......",
"....        ....",
"...  . .. .  ...",
"... .. .. .. ...",
"... .. .. .. ...",
"... .. .. .. ...",
"... .. .. .. ...",
"... .. .. .. ...",
"... .. .. .. ...",
"... .. .. .. ...",
"... .. .. .. ...",
"... .. .. .. ...",
"...          ..."
};
