/* XPM */
static char *_6a03a41c3294a10ba331f0c8e57aa8cvNdwur0AKBluquHB[] = {
/* columns rows colors chars-per-pixel */
"16 16 2 1 ",
"  c None",
". c #8DA5F3",
/* pixels */
"      ....      ",
"     ......     ",
"     . .. .     ",
"     . .. .     ",
"     ......     ",
"     ......     ",
"      ....      ",
"                ",
"       ..       ",
"    ........    ",
"  ............  ",
" .............. ",
" .............. ",
"................",
"... ........ ...",
"... ........ ..."
};
