/* XPM */
static char *_6da7f94d84a4ed1b966983be0dbd724PG3CFDvv8sOQnCKl[] = {
/* columns rows colors chars-per-pixel */
"32 34 173 2 ",
"   c None",
".  c #150D0E",
"X  c #110E12",
"o  c #1D0E10",
"O  c #0D1F14",
"+  c #151314",
"@  c #1D1D1C",
"#  c #17181A",
"$  c #270F12",
"%  c #241B13",
"&  c #2B131C",
"*  c #221E1F",
"=  c #261118",
"-  c #301D1D",
";  c #1E251F",
":  c #0C321A",
">  c #0C3C1D",
",  c #1A361A",
"<  c #2C2314",
"1  c #292018",
"2  c #352C1D",
"3  c #3A2B14",
"4  c #1D1321",
"5  c #2B1520",
"6  c #231D22",
"7  c #261B2A",
"8  c #291B2B",
"9  c #251A23",
"0  c #2C1D32",
"q  c #301D37",
"w  c #321E39",
"e  c #1E2620",
"r  c #272126",
"t  c #292427",
"y  c #2B232B",
"u  c #2D2A2B",
"i  c #322322",
"p  c #342C2B",
"a  c #34312C",
"s  c #2D2333",
"d  c #2F2338",
"f  c #34223A",
"g  c #3A213B",
"h  c #362F35",
"j  c #363331",
"k  c #3A3735",
"l  c #3C3937",
"z  c #3E3B39",
"x  c #3A3138",
"c  c #441216",
"v  c #4A1217",
"b  c #531318",
"n  c #5C141A",
"m  c #61151A",
"M  c #71161D",
"N  c #493918",
"B  c #523F1C",
"V  c #5C2D2F",
"C  c #413D3C",
"Z  c #473F34",
"A  c #692227",
"S  c #1D421D",
"D  c #0A652B",
"F  c #0A6C2E",
"G  c #0A7030",
"H  c #2D782E",
"J  c #2C752C",
"K  c #30792D",
"L  c #2C6D2A",
"P  c #5E4517",
"I  c #56511B",
"U  c #7D5A19",
"Y  c #6B4E17",
"T  c #4B4134",
"R  c #44413E",
"E  c #3C2444",
"W  c #42254C",
"Q  c #46304F",
"!  c #452751",
"~  c #462952",
"^  c #4A2A56",
"/  c #4E2E5B",
"(  c #512E5F",
")  c #4D3058",
"_  c #51305D",
"`  c #503859",
"'  c #553263",
"]  c #5D336C",
"[  c #5F386E",
"{  c #613F6E",
"}  c #623573",
"|  c #643A75",
" . c #673779",
".. c #673B79",
"X. c #6B3C7D",
"o. c #474340",
"O. c #494543",
"+. c #4D4A46",
"@. c #4C4C4C",
"#. c #514E4A",
"$. c #56524D",
"%. c #545454",
"&. c #5C5953",
"*. c #5E5E5E",
"=. c #56455D",
"-. c #635E5A",
";. c #605B57",
":. c #684C4A",
">. c #66615C",
",. c #5C4765",
"<. c #644F6C",
"1. c #635967",
"2. c #625069",
"3. c #674F71",
"4. c #6D467C",
"5. c #6E487D",
"6. c #654173",
"7. c #704D7E",
"8. c #606060",
"9. c #6D6762",
"0. c #6F6964",
"q. c #716C67",
"w. c #746F69",
"e. c #75716A",
"r. c #7A746E",
"t. c #7F7972",
"y. c #7D7770",
"u. c #8E1921",
"i. c #831820",
"p. c #991A23",
"a. c #A21B24",
"s. c #B51D27",
"d. c #BE1E29",
"f. c #AB2F37",
"g. c #CC1F2B",
"h. c #C51E2A",
"j. c #D2202C",
"k. c #CF333C",
"l. c #815D19",
"z. c #8C651A",
"x. c #90681B",
"c. c #986D1B",
"v. c #9E711C",
"b. c #AE7C1E",
"n. c #877D23",
"m. c #965756",
"M. c #817B74",
"N. c #C27775",
"B. c #4D802C",
"V. c #B9841F",
"C. c #BE881F",
"Z. c #948D26",
"A. c #9F8F26",
"S. c #A18E25",
"D. c #BA9023",
"F. c #D49721",
"G. c #8B847D",
"H. c #6E3F81",
"J. c #734286",
"K. c #754B85",
"L. c #76448A",
"P. c #79458D",
"I. c #784A8A",
"U. c #7E4893",
"Y. c #928B84",
"T. c #9A8880",
"R. c #9B938B",
"E. c #A49C94",
"W. c #BD8883",
"Q. c #B2AAA0",
"!. c #BEB5AA",
"~. c #C9C0B4",
"^. c #D3C9BD",
/* pixels */
"                  %.%.%.%.%.%.%.%.%.%.%.%.%.%.                  ",
"          *.*.%.%.@.%.%.%.%.%.%.%.%.%.%.%.%.@.%.%.*.8.          ",
"        8.*.%.@.@.%.*.*.1.I.I.I.I.I.I.1.*.*.%.@.@.%.*.8.        ",
"      *.*.%.%.@.=.6.6.{ { | | X.H.J.J.J.K.K.K.<.%.%.%.*.*.      ",
"    *.*.%.%.,.Q f g g g g g g g g ^ ..J.L.L.P.I.K.3.%.%.*.*.    ",
"    8.%.%.,.) 8 $ v b b b b b v = 7 / } J.J.L.L.P.I.3.%.%.8.    ",
"  8.*.@.@.` 8 & b u.p.a.s.s.s.a.n = 8 / X.J.J.J.L.P.7.%.@.*.8.  ",
"8.*.%.%.,._ & b M n n i.d.j.j.h.p.b 5 ~ }  .X.J.J.L.I.<.%.%.*.8.",
"*.%.@.%.4._ & n m o . c u.d.j.h.a.m = w ^ ^ ( [ H.L.P.K.%.@.%.*.",
"*.%.@.2.J.' 8 5 & + * p V f.k.f.A - * 6 y 8 7 E ..J.L.K.2.@.%.*.",
"*.@.%.K.P.| _ ~ w t -.Y.T.W.N.m.:.+.+.+.+.R t w | J.J.L.K.%.@.*.",
"*.@.%.K.L.J.J.| W x R.^.Q.E.G.>.&.&.&.&.&.#.u 7 ( ..J.L.K.%.@.*.",
"*.@.%.K.L.J.X.} W h G.R.+.o.O.z l k j j j a t 6 0 ' J.J.4.%.@.*.",
"*.@.%.4.J.J.X.} W u 9.0.a ;.G.G.G.M.0.9.9.9.>.O.7 ^ J.J.4.%.@.*.",
"*.%.%.4.J.X. .} W r #.#.l R.^.!.~.!.R.E.E.Y.R.w.y ^ J.J.4.%.%.*.",
"*.%.%.4.J.X. .} W r #.#.l Y.E.;.G.G.$.t.M.#.y.w.y ^ J.J.4.%.%.*.",
"*.%.%.4.J.X. .} ! y #.#.j M.M.z q.w.k q.w.k q.w.y ^ J.L.K.%.%.*.",
"*.%.%.4.J.X. .} W r #.#.j q.w.k q.w.k q.w.k q.w.s / J.L.K.%.%.*.",
"*.%.%.4.J.X. .} W r #.#.j q.r.o.e.r.o.e.r.o.e.w.s / L.U.K.%.%.*.",
"*.%.%.4.J.X. .] E r #.#.j e.Y.r.Y.Y.r.Y.Y.r.Y.w.s / L.U.K.%.%.*.",
"*.%.%.4.J.X.} ( w 6 R R u -.Y.Y.Y.Y.Y.Y.Y.Y.G.;.y ^ L.U.K.%.%.*.",
"*.%.%.K.L.J.] f # # ; e @ a T T T T T T T Z k t 7 / L.U.K.%.%.*.",
"*.%.%.K.L.J.] 0 O > > > S I U U U U U U U Y 3 4 E ] J.P.K.%.%.*.",
"*.%.%.K.L.J.] s : D F F J Z.F.C.V.V.V.V.V.v.N 0 ] X.J.L.K.%.%.*.",
"*.%.%.K.P.L.] s : D G G H Z.b.P B B B B B N 1 q ] X.J.L.K.%.%.*.",
"*.%.%.K.U.L.] s : D G G H Z.c.< p C C C C k r q } H.J.L.K.%.%.*.",
"*.%.%.K.U.L.] s : D G G H Z.c.2 #.e.e.e.e.>.j w | J.J.J.4.%.%.*.",
"*.%.%.K.P.L.| d : D G G H Z.c.2 #.q.e.r.M.0.k w ..J.J.J.4.%.%.*.",
"%.@.%.K.L.J.| f : D G G H Z.c.2 j +.$.r.Y.t.C f ..J.J.J.5.%.@.%.",
"%.@.%.K.L.J.| f , L K K B.A.c.< + + u e.E.M.C f ..J.J.L.K.%.@.%.",
"%.@.%.K.P.J.| g N n.Z.Z.S.D.z.% X X r 0.M.R y E ..J.J.P.K.%.@.%.",
"%.@.%.K.U.L.| f 3 l.x.x.x.z.P % 9 7 6 O.O.@ 0 / X.J.P.U.K.%.@.%.",
"%.@.%.K.U.L.| E 9 i i i i i 9 8 W ! 7 7 8 0 _ X.J.P.U.U.K.%.@.%.",
"%.@.%.K.U.U.L.| _ _ _ _ _ _ _ ' ] ] ' _ _ ' | J.P.U.U.U.K.%.@.%."
};
