/* XPM */
static char *_1cad28d05c24db8b1f174063ba53314tGRNFBthfipZjup0[] = {
/* columns rows colors chars-per-pixel */
"32 32 83 1 ",
"  c #341D3D",
". c #371E40",
"X c #391F43",
"o c #3F214A",
"O c #41224D",
"+ c #452552",
"@ c #4A2757",
"# c #4A2758",
"$ c #4D295B",
"% c #502A5F",
"& c #552D65",
"* c #582F67",
"= c #582F68",
"- c #5C316D",
"; c #5F3370",
": c #633575",
"> c #68377A",
", c #673879",
"< c #6A3A7D",
"1 c #4C4C4C",
"2 c #535353",
"3 c #565159",
"4 c #59555B",
"5 c #59595A",
"6 c #5F4F66",
"7 c #5F5F62",
"8 c #654D6D",
"9 c #625069",
"0 c #674C71",
"q c #6A4E75",
"w c #6D457D",
"e c #6D4D7A",
"r c #6C5078",
"t c #636366",
"y c #65666A",
"u c #696A6E",
"i c #6A6B71",
"p c #6F7076",
"a c #717278",
"s c #6E3D81",
"d c #703F83",
"f c #734285",
"g c #724B82",
"h c #734984",
"j c #744A84",
"k c #744288",
"l c #754389",
"z c #754588",
"x c #754589",
"c c #78468B",
"v c #78458C",
"b c #77488A",
"n c #78488A",
"m c #7B488F",
"M c #7D4791",
"N c #7D4891",
"B c #777A85",
"V c #7C7E8A",
"C c #866F9F",
"Z c #887B9D",
"A c #8D75A6",
"S c #8E79A6",
"D c #8F76A9",
"F c #9277AB",
"G c #9378AD",
"H c #828593",
"J c #858997",
"K c #878A98",
"L c #888B98",
"P c #898D9B",
"I c #8A8E9C",
"U c #8E92A1",
"Y c #9296A7",
"T c #9498AA",
"R c #969AAD",
"E c #979CAE",
"W c #989DAF",
"Q c #9A9FB3",
"! c #9BA0B4",
"~ c #A6ABC3",
"^ c #AAB0C9",
"/ c #ACB2CB",
"( c #AEB4CE",
/* pixels */
"((((((((~YJJJJKKKKJJJKQ/((((((((",
"(((((^YKV7222244422222iHKW((((((",
"((((/Uu54224480qq09442245aE(((((",
"((((Py5238qqqxxmNvgerq6245aR((((",
"(((Ly438exxffffxxxffxcje845pT(((",
"(((a43qbxfsd<<<fffdsflxvj947J(((",
"((Lt13gvld<<,,,<<d<<sfflve24iE((",
"(It220blf<,:---,,<,,<sfflj824p!(",
"(a413jvld<:-===-;:-::<fflve215U(",
"(a220nlfs,-=***&=-=-:<sfflg614U(",
"(a12jvff<:-=*&%$&&**-:<fffxq24U(",
"(a12jlf<:-=**$#$$$&*-;<sfff024U(",
"(a12wfd<:-**%$+#+#%*=-:<sff824U(",
"(a24wf<,:-*%$@OOO+$**-:,<ff825U(",
"(a44wf<,:-*$#OO.X+$&*=:,<ff845U(",
"(a44wf<,,:-*$O  .+#%*=-,<fxq25U(",
"(a44wf<,:-=*$O   X+$&*-<ffxq45U(",
"(a44wf<::-*$#Oo  .+$&*-<fxmq45U(",
"(a22wf<:-=*$#O   X+$%*-<fxNq45U(",
"(a22wf<:-=*$#O  .o+$&*-:<xNq45U(",
"(a42hld<-=*%$+o.XO+$**-,<xvq25U(",
"(a42jlf<:-*&$+OoO+#%*=:,<fxq45U(",
"(a42jvf<:-=*$@+O+#$&=;:,<fxq45U(",
"(a44jMf<,:-*%$#+#$&*-:,<<fxq45U(",
"(a22jMl<,:-**$$$$$*-::<<fff045U(",
"(p22jvld<:-=*%$&*&*-:,<ffff824U(",
"(i12jlffd<:-=*%***=;:<sffff022I(",
"(i12jlfff<,:-=====;:,<ffffxq21I(",
"(i12jvlffd<,:--==-,,<sffflcq22I(",
"(i12jMlffd<><,,-;,<<sffflvNq22I(",
"(i12jMvxff<<d<<<,<sfffflvNNq22I(",
"(PBVSGGFDDDDDDDDCADDDDDDGGFZVVQ("
};
