/* XPM */
static char *_486cdb7e9a14c09cf9e692cd06719fcdc4luCRIqczRfuoh[] = {
/* columns rows colors chars-per-pixel */
"32 32 186 2 ",
"   c #231D19",
".  c #2C1E1A",
"X  c #341E18",
"o  c #3B1E18",
"O  c #1F2619",
"+  c #1F2B1C",
"@  c #1D321B",
"#  c #1B391B",
"$  c #20231B",
"%  c #2A211F",
"&  c #33231F",
"*  c #392019",
"=  c #1D2D21",
"-  c #1C3424",
";  c #173F25",
":  c #1C3829",
">  c #252722",
",  c #2B2524",
"<  c #2F2A29",
"1  c #352622",
"2  c #3B2A27",
"3  c #332D2D",
"4  c #213A25",
"5  c #2A3F34",
"6  c #373133",
"7  c #393233",
"8  c #383E37",
"9  c #3A3538",
"0  c #3D383B",
"q  c #441F17",
"w  c #481F17",
"e  c #431F18",
"r  c #4A2017",
"t  c #45231B",
"y  c #49221A",
"u  c #542117",
"i  c #5C2217",
"p  c #55241B",
"a  c #5E251A",
"s  c #5C291F",
"d  c #66261A",
"f  c #762416",
"g  c #7C2515",
"h  c #4B2E28",
"j  c #572820",
"k  c #45302C",
"l  c #58322C",
"z  c #453636",
"x  c #4E3530",
"c  c #433B3D",
"v  c #5D3730",
"b  c #543934",
"n  c #5D3E3A",
"m  c #612D24",
"M  c #6A2E24",
"N  c #762F22",
"B  c #6E342C",
"V  c #703128",
"C  c #623732",
"Z  c #643B34",
"A  c #6D3B35",
"S  c #623D3B",
"D  c #693E39",
"F  c #733933",
"G  c #19421A",
"H  c #154E1B",
"J  c #194C1E",
"K  c #115F1E",
"L  c #0F681D",
"P  c #097F1F",
"I  c #174428",
"U  c #124D2C",
"Y  c #0F5D2B",
"T  c #125A20",
"R  c #135B2B",
"E  c #30402F",
"W  c #24552B",
"Q  c #2D4B32",
"!  c #2A5330",
"~  c #2A5736",
"^  c #355C3F",
"/  c #0D6725",
"(  c #156E25",
")  c #196827",
"_  c #0A7227",
"`  c #087D23",
"'  c #09752B",
"]  c #127524",
"[  c #61413C",
"{  c #6C403D",
"}  c #77443D",
"|  c #443F42",
" . c #3D5D46",
".. c #434444",
"X. c #4A454A",
"o. c #454848",
"O. c #4C484E",
"+. c #44544E",
"@. c #4C4E51",
"#. c #554B50",
"$. c #555457",
"%. c #5B545C",
"&. c #745350",
"*. c #53685E",
"=. c #5D5B64",
"-. c #605E67",
";. c #605F68",
":. c #745D62",
">. c #596865",
",. c #61676C",
"<. c #746067",
"1. c #686874",
"2. c #6D6D7A",
"3. c #796A73",
"4. c #6B7379",
"5. c #7C707B",
"6. c #832615",
"7. c #892715",
"8. c #972917",
"9. c #9A2815",
"0. c #A42A14",
"q. c #AB2A14",
"w. c #AC2D19",
"e. c #B52C15",
"r. c #B82C14",
"t. c #B72F18",
"y. c #B8351F",
"u. c #933122",
"i. c #A53724",
"p. c #B73B27",
"a. c #D72F13",
"s. c #DC3114",
"d. c #DB3519",
"f. c #D9381D",
"g. c #D43F26",
"h. c #DF3D22",
"j. c #E03D22",
"k. c #BA422F",
"l. c #B94230",
"z. c #C9422C",
"x. c #DD432A",
"c. c #C94A36",
"v. c #E1432A",
"b. c #985E57",
"n. c #AE5A4E",
"m. c #B1594C",
"M. c #9A635D",
"N. c #A0645C",
"B. c #BA6053",
"V. c #A76962",
"C. c #B6726C",
"Z. c #C25E4F",
"A. c #E75D49",
"S. c #C4675A",
"D. c #D26C5E",
"F. c #E7624F",
"G. c #E16553",
"H. c #E96754",
"J. c #C66F63",
"K. c #D97669",
"L. c #06871D",
"P. c #08831E",
"I. c #068625",
"U. c #058B23",
"Y. c #767684",
"T. c #797887",
"R. c #7C7E8D",
"E. c #7E7F90",
"W. c #7D818F",
"Q. c #828495",
"!. c #858799",
"~. c #87899B",
"^. c #898B9D",
"/. c #8B8EA1",
"(. c #8E91A4",
"). c #9195A9",
"_. c #9599AE",
"`. c #999DB3",
"'. c #9CA1B7",
"]. c #9DA2B8",
"[. c #A1A6BD",
"{. c #A3A8BF",
"}. c #A6ABC3",
"|. c #A9AEC7",
" X c #AAAFC9",
".X c #AEB4CE",
/* pixels */
".X.X.X.X.X.X.X.X.X.X.X.X.X.X.X.X.X.X].Q.Y.Y.Y.Y.Q.]..X.X.X.X.X.X",
".X.X.X.X.X.X.X.X.X.X X}.[.[.}..X.X[.W...O $ $   | ~..X.X.X.X.X.X",
".X.X.X.X.X.X.X.X.X.X`.R.Y.Y.^.[.'.Q.>.~ H H G + | ~..X.X.X.X.X.X",
".X.X.X.X.X.X.X.X X}.W.o.8 8 >.(.Q.$.! ( P.P L # | ~..X.X.X.X.X.X",
".X.X.X.X.X.X.X.X`.R.*.W H H ^ ,.>.~ K ` I.I./ # | ~..X.X.X.X.X.X",
".X.X.X.X.X.X.X.XQ.X.! ] P.P.) Q Q ( ` ' ' ' Y 4 X.^. X.X.X.X.X.X",
".X.X.X.X.X.X.X.XY.3 J L.U.` T @ # / _ / Y R ! +.1._..X.X.X.X.X.X",
".X.X.X.X.X.X.X.XT.3 J L.` Y ; + + I U U I -  .R.].}..X.X.X.X.X.X",
".X.X.X.X.X.X.X.X/.;. .) T ; = $ $ - - : 5 @.2._..X.X.X.X.X.X.X.X",
".X.X.X.X.X.X.X.X}.`.4.E + $ $     $ $ > ..R.].}..X.X.X.X.X.X.X.X",
".X.X.X X`.Q.R.R.E.R.=.<                 9 1.^.[..X.X.X.X.X.X.X.X",
".X.X.X}.R.X.9 9 9 9 3                   , 6 %.(..X.X.X.X.X.X.X.X",
".X|.`.!.3.&.C d y . 2 n C s i i r X 1 b Z m D 3./.[..X.X.X.X.X.X",
".X[.R.%.&.C.Z.y.g X [ C.S.p.r.e.7.y b N.S.k.8.C %.(..X.X.X.X.X.X",
".X[.2.c } D.A.f.8.X A D.A.j.s.a.0.p v B.H.x.q.u | ~..X.X.X.X.X.X",
".X[.2.z N z.h.s.8.X M z.v.d.s.a.0.p s p.v.d.q.u | ~..X.X.X.X.X.X",
".X{.W.%.F 8.q.q.f X u 9.q.q.q.0.g y r 7.q.q.u.S -.)..X.X.X.X.X.X",
".X X].^.<.l p u t . * u u u p p y X X y p p S 5.).}..X.X.X.X.X.X",
".X.X.X}.Q.$.7 % 2 b l p e . 1 x l p q X , c ,.)..X.X.X.X.X.X.X.X",
".X.X.X.X'.!.=.< n V.m.i.f o b b.m.i.6.t 0 2.(.[..X.X.X.X.X.X.X.X",
".X.X.X.X.X}.Y.3 } K.F.h.9.e Z S.H.x.0.p X.^..X.X.X.X.X.X.X.X.X.X",
".X.X.X.X.X|.T.6 V c.x.d.9.e m l.x.f.0.j X.^..X.X.X.X.X.X.X.X.X.X",
".X.X.X.X.X}.Q.O.B w.r.r.6.o u 9.r.r.u.S =.)..X.X.X.X.X.X.X.X.X.X",
".X.X.X.X.X.X].^.:.m a i w . X u i a { 5.(.[..X.X.X.X.X.X.X.X.X.X",
".X.X.X.X.X.X.X.XQ.O.6 % 1 k h y o & O./..X.X.X.X.X.X.X.X.X.X.X.X",
".X.X.X.X.X.X.X.X].~.;.3 b M.n.i.g t O./..X.X.X.X.X.X.X.X.X.X.X.X",
".X.X.X.X.X.X.X.X.X|.T.6 D J.G.g.9.p O./..X.X.X.X.X.X.X.X.X.X.X.X",
".X.X.X.X.X.X.X.X.X.XR.6 M c.v.d.0.p O./..X.X.X.X.X.X.X.X.X.X.X.X",
".X.X.X.X.X.X.X.X.X.X!.@.A i.t.r.u.S ;.)..X.X.X.X.X.X.X.X.X.X.X.X",
".X.X.X.X.X.X.X.X.X.X`.Q.:.B d d { 3.^.[..X.X.X.X.X.X.X.X.X.X.X.X",
".X.X.X.X.X.X.X.X.X.X X}.T.z . & #.^.}..X.X.X.X.X.X.X.X.X.X.X.X.X",
".X.X.X.X.X.X.X.X.X.X.X.X[.)././._.}..X.X.X.X.X.X.X.X.X.X.X.X.X.X"
};
