/* XPM */
static char *_27d1691ae4f4acdb37d4a6cff4360d3zuWGzJ7iH2Z8nWkY[] = {
/* columns rows colors chars-per-pixel */
"32 32 141 2 ",
"   c #0E0D0E",
".  c #130D0E",
"X  c #180D0F",
"o  c #19150F",
"O  c #1F0E10",
"+  c #0D1811",
"@  c #181415",
"#  c #1F1618",
"$  c #1B1A1B",
"%  c #240F11",
"&  c #290F12",
"*  c #2A1012",
"=  c #241C10",
"-  c #211D1E",
";  c #0D2716",
":  c #0D2A18",
">  c #172C17",
",  c #0C321A",
"<  c #272117",
"1  c #2B2212",
"2  c #352C1D",
"3  c #383515",
"4  c #3A3D18",
"5  c #1F1E22",
"6  c #252324",
"7  c #2E2126",
"8  c #27272A",
"9  c #2C2A28",
"0  c #382F20",
"q  c #3A252A",
"w  c #312B2D",
"e  c #32302F",
"r  c #2D2D32",
"t  c #302E30",
"y  c #333232",
"u  c #3A3735",
"i  c #3C3A37",
"p  c #33333B",
"a  c #3A393B",
"s  c #4B1317",
"d  c #481318",
"f  c #6D161C",
"g  c #77171E",
"h  c #7B171E",
"j  c #4A3714",
"k  c #513C15",
"l  c #413E3E",
"z  c #633D3D",
"x  c #0A642B",
"c  c #0A6B2E",
"v  c #0A7030",
"b  c #2B732C",
"n  c #2D782E",
"m  c #5E471F",
"M  c #644917",
"N  c #785719",
"B  c #46423F",
"V  c #777F26",
"C  c #3B3B43",
"Z  c #3F4049",
"A  c #444242",
"S  c #494543",
"D  c #4F4A47",
"F  c #48474B",
"G  c #514D49",
"H  c #57524F",
"J  c #454A52",
"K  c #4B4C56",
"L  c #4F515C",
"P  c #5B5753",
"I  c #5E5955",
"U  c #605B57",
"Y  c #635E59",
"T  c #69655E",
"R  c #5C5F6C",
"E  c #5F616F",
"W  c #6B6660",
"Q  c #7C6762",
"!  c #726D67",
"~  c #746F69",
"^  c #75706A",
"/  c #7B766E",
"(  c #616472",
")  c #676B79",
"_  c #696D7C",
"`  c #6C707F",
"'  c #7D7871",
"]  c #861820",
"[  c #911922",
"{  c #9B1A23",
"}  c #AA1C26",
"|  c #BA1D28",
" . c #C41F2A",
".. c #CC1F2B",
"X. c #D2202C",
"o. c #986D1B",
"O. c #AA791D",
"+. c #A1474A",
"@. c #847D76",
"#. c #877F7A",
"$. c #B36A69",
"%. c #CA5F62",
"&. c #B4811F",
"*. c #B8831F",
"=. c #BF881F",
"-. c #858E29",
";. c #938D26",
":. c #949228",
">. c #BE8820",
",. c #BC9624",
"<. c #E1A023",
"1. c #87807A",
"2. c #89837C",
"3. c #6D7181",
"4. c #717585",
"5. c #767A8B",
"6. c #7A7F90",
"7. c #7E8294",
"8. c #948C85",
"9. c #9D968D",
"0. c #83879A",
"q. c #868A9E",
"w. c #A79F97",
"e. c #ADA49C",
"r. c #B0A79E",
"t. c #B1A99F",
"y. c #8B90A4",
"u. c #8F94A9",
"i. c #9196AB",
"p. c #9499AF",
"a. c #969BB2",
"s. c #9DA2B9",
"d. c #B2A9A0",
"f. c #A1A6BE",
"g. c #D2C8BC",
"h. c #A5AAC3",
"j. c #A9AFC9",
"k. c #AEB4CE",
"l. c #DBD0C3",
"z. c #E1D7C9",
"x. c #E4DACC",
/* pixels */
"k.k.k.k.k.k.k.k.k.k.k.k.k.k.k.k.k.k.k.k.k.k.k.k.k.k.k.k.k.k.k.k.",
"k.k.k.k.k.k.f.6.( ( ( ( ( ( ( ( ( 7.h.k.k.k.k.k.k.k.k.k.k.k.k.k.",
"k.k.k.k.k.h.q.C X % * * * * * % # F y.h.k.k.k.k.k.k.k.k.k.k.k.k.",
"k.k.k.k.h.7.C - s { } } } } } [ d $ Z 0.k.k.k.k.k.k.k.k.k.k.k.k.",
"k.k.k.k.h.4.7 s f g h {  .X.X. .] d w 5.k.k.k.k.k.k.k.k.k.k.k.k.",
"k.k.k.k.h.4.q g h % X s } ..X...| h q ` s.s.s.h.k.k.k.k.k.k.k.k.",
"k.k.k.k.h.4.6 & * . . O s { X.| f * @ 8 p p C ( f.k.k.k.k.k.k.k.",
"k.k.k.k.j.y.R L C 6 S W Q $.%.+.z i i i i y 6 K s.k.k.k.k.k.k.k.",
"k.k.k.k.k.k.k.h.4.A 9.z.l.g.t.' ! ! ! ! ! Y u J p.j.k.k.k.k.k.k.",
"k.k.k.k.k.k.k.h.4.A 8.e.P A i 9 9 9 9 9 9 6 $ 5 J q.k.k.k.k.k.k.",
"k.k.k.k.k.k.k.h.4.a / / 9 B Y Y Y P G D D D S y r 5.k.k.k.k.k.k.",
"k.k.k.k.k.k.k.h.4.y G G i 9.x.z.z.g.d.e.r.e.w.~ a 5.k.k.k.k.k.k.",
"k.k.k.k.k.k.k.h.4.y G G i 8.r.~ 8.8.U @.1.I @.~ a 5.k.k.k.k.k.k.",
"k.k.k.k.k.k.k.h.4.y G G u 1.2.i ! ~ u ! ~ u ! ~ a 5.k.k.k.k.k.k.",
"k.k.k.k.k.k.k.h.4.y G G y ! ~ u ! ~ u ! ~ u ! ~ a 5.k.k.k.k.k.k.",
"k.k.k.k.k.k.k.h.4.y G G y ! ~ u ! ~ u ! ~ u ! ~ a 5.k.k.k.k.k.k.",
"k.k.k.k.k.k.k.h.4.y G G y ~ 2.Y #.2.Y #.2.Y @.~ a 5.k.k.k.k.k.k.",
"k.k.k.k.k.k.k.h.4.y G G y / d.t.d.d.t.d.d.t.e.~ a 5.k.k.k.k.k.k.",
"k.k.k.k.k.k.s.) p $ 6 6 $ y S S S S S S S S A e r 5.k.k.k.k.k.k.",
"k.k.k.k.k.k.p.J + ; : : > 3 k k k k k k k j < 6 K q.k.k.k.k.k.k.",
"k.k.k.k.k.k.p.J , x c c b ;.<.<.<.<.<.<.<.=.m J a.k.k.k.k.k.k.k.",
"k.k.k.k.k.k.p.J , x v v n ;.*.N M M M M M k 2 K s.k.k.k.k.k.k.k.",
"k.k.k.k.k.k.p.J , x v v n ;.o.1 - 9 9 9 9 6 6 K s.k.k.k.k.k.k.k.",
"k.k.k.k.k.k.p.J , x v v n ;.o.2 G ! ! ! ! Y u K s.k.k.k.k.k.k.k.",
"k.k.k.k.k.k.p.J , x v v n ;.o.0 H / / / / T i K s.k.k.k.k.k.k.k.",
"k.k.k.k.k.k.p.J , x v v n ;.o.2 B Y T / 2.^ l K s.k.k.k.k.k.k.k.",
"k.k.k.k.k.k.p.J , x v v n ;.o.1 @ $ e / e.8.D K s.k.k.k.k.k.k.k.",
"k.k.k.k.k.k.p.K 4 V -.-.:.,.o.=     6 ^ 8.H t K s.k.k.k.k.k.k.k.",
"k.k.k.k.k.k.p.K k O.>.>.>.&.N < 6 6 6 I I 6 r E s.k.k.k.k.k.k.k.",
"k.k.k.k.k.k.p.J o 1 1 1 1 1 = 8 ( ( 6 $ $ 8 _ f.k.k.k.k.k.k.k.k.",
"k.k.k.k.k.k.f.6.( ( ( ( ( ( ( 3.u.i._ ( ( 3.p.k.k.k.k.k.k.k.k.k.",
"k.k.k.k.k.k.k.k.k.k.k.k.k.k.k.k.k.k.k.k.k.k.k.k.k.k.k.k.k.k.k.k."
};
