/* XPM */
static char *_280acc92f794e0ddc9f1bcb1b8973daRuEtSuiuN7cTvxM7[] = {
/* columns rows colors chars-per-pixel */
"34 32 102 2 ",
"   c None",
".  c #242B33",
"X  c #282F37",
"o  c #272F38",
"O  c #282F38",
"+  c #2A323B",
"@  c #2E3641",
"#  c #2F3843",
"$  c #303740",
"%  c #323A45",
"&  c #353E4B",
"*  c #383F4A",
"=  c #36404E",
"-  c #3B424E",
";  c #3B4451",
":  c #3D4857",
">  c #3F4959",
",  c #404753",
"<  c #424956",
"1  c #424D5D",
"2  c #454F60",
"3  c #465062",
"4  c #4B5464",
"5  c #4C566A",
"6  c #4F586C",
"7  c #525A6D",
"8  c #545D73",
"9  c #576076",
"0  c #596275",
"q  c #5B647C",
"w  c #5F687D",
"e  c #606776",
"r  c #636A7D",
"t  c #5F6881",
"y  c #626A84",
"u  c #666E88",
"i  c #697185",
"p  c #6A728B",
"a  c #71778A",
"s  c #72798C",
"d  c #6E7690",
"f  c #747C94",
"g  c #797F94",
"h  c #777F99",
"j  c #787F99",
"k  c #798093",
"l  c #7A8094",
"z  c #7B8196",
"x  c #7C8396",
"c  c #79819B",
"v  c #7A819B",
"b  c #7D8398",
"n  c #7D839A",
"m  c #7D849B",
"M  c #7E859A",
"N  c #7C839D",
"B  c #7E859C",
"V  c #7E859D",
"C  c #7D849E",
"Z  c #80869A",
"A  c #80869B",
"S  c #81889C",
"D  c #80889E",
"F  c #8087A1",
"G  c #8189A3",
"H  c #8289A3",
"J  c #848AA0",
"K  c #828AA4",
"L  c #838AA4",
"P  c #848BA5",
"I  c #858CA6",
"U  c #868DA7",
"Y  c #8990AA",
"T  c #8A91AB",
"R  c #8E94AA",
"E  c #8C93AD",
"W  c #8D94AE",
"Q  c #8E95AF",
"!  c #9198B2",
"~  c #959BB5",
"^  c #989EB8",
"/  c #9BA1BB",
"(  c #9CA2BC",
")  c #9CA3BD",
"_  c #9FA5BF",
"`  c #9FA6C0",
"'  c #A0A6C0",
"]  c #A1A7C1",
"[  c #A1A8C1",
"{  c #A2A8C2",
"}  c #A3A9C3",
"|  c #A4AAC4",
" . c #A5ABC5",
".. c #A6ACC6",
"X. c #A6ADC7",
"o. c #A7ADC7",
"O. c #A7AEC8",
"+. c #A8AEC8",
"@. c #AAB0CA",
"#. c #ACB2CC",
"$. c #ADB3CD",
"%. c #AEB4CE",
/* pixels */
"    . * k %.%.%.%.%.%.%.%.%.S , . . . . * k %.%.%.%.%.%.%.g * .     ",
"    ; 4 z _ _ ` ..%.%.%.+.] g < O . + * 4 z ] ..%.%.%...] s - +     ",
". ; i A C N N C ~ $.%.%./ L y 1 % + * r A C F ^ %.%.%.^ F r : % + . ",
". , S  .U p p u Y $.%.%.! d 9 2 = + , S { F p W %.%.%.W p 8 1 * + . ",
". , S @.( W h u Y $.%.%.! d 9 2 = + , S { F p W %.%.%.W p 8 1 * + . ",
". , S $.@.{ G u U ..+.+.W p 9 2 = + , S { F p Y +.+.+.Y p 8 1 * + . ",
". , S +.~ G f u f P U U j p 9 2 = + , S { F u f U U U f u 8 1 * + . ",
". , S { F y y y y y y y y y 9 2 = + , A { F u u y y y y y 8 1 * + . ",
". , S { F y 0 7 7 7 0 y y y 9 2 = + % 7 p n P f y y y q 8 4 1 * + . ",
". , S { F y 6 > > > 6 y y y 9 2 = + . O ; k  .L y y y 8 1 > : * + . ",
". , S { F y 6 : : : 6 y y y q 8 2 - + o $ 7 a r 8 8 8 4 > ; * @ . . ",
". , S { F y 6 : : : 6 y y y y y 8 1 = + . + % ; 1 1 1 > : * + . . . ",
". , S { F y 8 5 5 5 8 y q 9 0 y 0 3 ; + . . . @ * * * * & @ . . . . ",
". , S { F y t q q q t y 9 4 6 q 0 3 ; + . . . . + + + + O . . . . . ",
". * r M i 9 9 9 9 9 9 9 6 1 3 8 6 > % + . . X - 4 4 4 4 4 - + . . . ",
". + - 1 1 3 3 3 3 3 3 3 1 > 1 2 > % + . . . + 0 R R R R R r % . . . ",
". . . . % = = = = = = = = = = = % + . . + * 4 f ( ( ( ( ( a - + . . ",
". . . . + + + + + + + + + + + + + . . . % e J C c c c c c w > % O . ",
". . . X % - - - - - - - - - % + . . . . * k O.P y y q q q 7 1 * + . ",
". . . % 0 x x x x x x x x x e % . . . . * k O.P y 9 5 5 5 3 > * + . ",
". . + < z ..@.%.%.%.@.O.....n < . . . . * k O.P y 6 > : : : : * + . ",
". % 0 f M U / %.%.%./ U L L i 1 @ O . . * k O.P y 6 > : : : : * + . ",
". , S { F p W %.%.%.W p y y 8 2 = + . O ; z  .L y 7 1 > > > : * + . ",
". , S { F p W %.%.%.W p q 8 4 1 = + % 7 p n P f y 0 7 7 7 4 1 * + . ",
". , S { F p W %.%.%.W p 8 1 : : = + , A { F u y y y y y y 8 1 * + . ",
". , S { F u c E E E c u q 8 4 1 = + , S { F u h P f u q 8 5 1 * + . ",
". , S { F y u p p p u y y y 8 2 = + , S { F p Y ..U u 8 1 > > * + . ",
". - r s r 8 8 8 8 8 8 8 8 8 4 ; # + % 0 s r 9 p S p 8 5 > ; * % + . ",
"    % - : 1 1 1 1 1 1 1 1 1 ; @ . . X % - : 1 3 5 3 1 1 > * + o     ",
"      o % * * * * * * * * * # o . . . . . @ * * * * * * * # o       ",
"        + + + + + + + + + + o . . . . . . . + + + + + + + +         ",
"        . . . . . . . . . . . . . . . . . . . . . . . . . .         "
};
